<?xml version="1.0" encoding="UTF-8" standalone="no" ?>
<!DOCTYPE svg PUBLIC "-//W3C//DTD SVG 1.1//EN" "http://www.w3.org/Graphics/SVG/1.1/DTD/svg11.dtd">
<svg xmlns="http://www.w3.org/2000/svg" xmlns:xlink="http://www.w3.org/1999/xlink" version="1.1" width="1080" height="1080" viewBox="0 0 1080 1080" xml:space="preserve">
<desc>Created with Fabric.js 5.2.4</desc>
<defs>
</defs>
<rect x="0" y="0" width="100%" height="100%" fill="transparent"></rect>
<g transform="matrix(1 0 0 1 540 540)" id="6cd2a94e-b8a4-487d-9d62-a05480fdbdac"  >
<rect style="stroke: none; stroke-width: 1; stroke-dasharray: none; stroke-linecap: butt; stroke-dashoffset: 0; stroke-linejoin: miter; stroke-miterlimit: 4; fill: rgb(255,255,255); fill-rule: nonzero; opacity: 1; visibility: hidden;" vector-effect="non-scaling-stroke"  x="-540" y="-540" rx="0" ry="0" width="1080" height="1080" />
</g>
<g transform="matrix(1 0 0 1 540 540)" id="501506d9-45fe-4e52-93dd-da99cf6c689f"  >
</g>
<g transform="matrix(0 -1 1 0 540.01 540)"  >
<g style="" vector-effect="non-scaling-stroke"   >
		<g transform="matrix(1 0 0 1 -417.05 42.95)"  >
<path style="stroke: none; stroke-width: 1; stroke-dasharray: none; stroke-linecap: butt; stroke-dashoffset: 0; stroke-linejoin: miter; stroke-miterlimit: 4; fill: rgb(255,255,255); fill-rule: nonzero; opacity: 1;" vector-effect="non-scaling-stroke"  transform=" translate(-122.95, -582.96)" d="M 197.55 677.91 L 165.38 677.91 L 165.38 667.7099999999999 L 158.71 670.0699999999999 C 141.84 677.92 123.01 681.8399999999999 101.82000000000001 681.8399999999999 C 71.21000000000001 681.8399999999999 50.82000000000001 662.6199999999999 48.46000000000001 632.0199999999999 C 46.10000000000001 602.5899999999999 62.980000000000004 568.0699999999998 91.62 564.1399999999999 C 95.94 563.3599999999999 100.25 563.3599999999999 104.96000000000001 563.3599999999999 C 122.22000000000001 563.3599999999999 141.05 566.4999999999999 158.71 570.4199999999998 L 165.38 571.9899999999999 L 165.38 556.6899999999999 C 165.78 544.14 165.38 535.4999999999999 162.63 529.2299999999999 C 159.88 522.9499999999999 155.18 519.42 146.54 517.8499999999999 C 144.19 517.4599999999999 141.82999999999998 517.06 139.09 517.06 C 114.77000000000001 517.06 81.42 533.15 74.74000000000001 536.29 L 54.730000000000004 511.17999999999995 C 62.580000000000005 506.46999999999997 101.42 484.10999999999996 144.57 484.10999999999996 C 149.67 484.10999999999996 162.23 484.9 173.60999999999999 490.38999999999993 C 187.73 497.44999999999993 195.57999999999998 508.8299999999999 197.14999999999998 525.31 C 197.95 530.78 197.55 677.91 197.55 677.91 z M 165.38 600.23 L 161.46 599.44 C 151.26000000000002 597.09 135.56 594.73 117.52000000000001 594.73 C 109.28000000000002 594.73 101.83000000000001 595.12 94.37 596.3000000000001 C 90.45 597.09 86.52000000000001 601.0100000000001 83.39 607.2900000000001 C 79.86 614.35 77.9 622.2 78.68 630.0400000000001 C 79.47000000000001 642.59 87.31 649.2700000000001 101.83000000000001 649.2700000000001 C 131.65 649.2700000000001 165.38 649.2700000000001 165.38 624.95 L 165.38 600.23 z M 144.59 484.09" stroke-linecap="round" />
</g>
		<g transform="matrix(1 0 0 1 -209.84 -1.77)"  >
<path style="stroke: none; stroke-width: 1; stroke-dasharray: none; stroke-linecap: butt; stroke-dashoffset: 0; stroke-linejoin: miter; stroke-miterlimit: 4; fill: rgb(255,255,255); fill-rule: nonzero; opacity: 1;" vector-effect="non-scaling-stroke"  transform=" translate(-330.16, -538.24)" d="M 318 579.04 L 283.48 622.1999999999999 L 283.48 678.3 L 251.3 678.3 L 251.3 398.17 L 283.47 398.17 L 283.47 569.62 L 346.63 489.19 L 387.83 489.19 L 338.78999999999996 551.96 L 409.02 678.2900000000001 L 371.36 678.2900000000001 L 318 579.04 z" stroke-linecap="round" />
</g>
		<g transform="matrix(1 0 0 1 -33.29 41.77)"  >
<path style="stroke: none; stroke-width: 1; stroke-dasharray: none; stroke-linecap: butt; stroke-dashoffset: 0; stroke-linejoin: miter; stroke-miterlimit: 4; fill: rgb(255,255,255); fill-rule: nonzero; opacity: 1;" vector-effect="non-scaling-stroke"  transform=" translate(-506.71, -581.78)" d="M 588.71 597.87 L 457.67 597.87 C 459.24 615.52 463.95 627.69 471.40000000000003 635.53 C 479.64000000000004 644.16 492.59000000000003 647.6899999999999 513.38 647.6899999999999 C 531.43 647.6899999999999 556.93 642.1999999999999 569.09 636.7099999999999 L 582.4300000000001 666.1399999999999 C 566.74 673.1999999999998 536.5300000000001 680.2599999999999 513.3800000000001 680.2599999999999 C 483.5600000000001 680.2599999999999 462.7700000000001 673.1999999999999 447.8600000000001 657.8999999999999 C 439.6200000000001 649.6599999999999 434.1300000000001 638.6799999999998 430.2000000000001 625.7299999999999 C 426.67000000000013 613.5699999999999 424.7100000000001 599.05 424.7100000000001 581.79 C 424.7100000000001 551.5799999999999 432.1700000000001 526.86 445.9000000000001 509.98999999999995 C 453.3500000000001 500.96 462.7700000000001 494.68999999999994 473.7600000000001 489.97999999999996 C 483.9600000000001 485.65999999999997 496.1200000000001 483.30999999999995 509.0700000000001 483.30999999999995 C 535.7500000000001 483.30999999999995 556.1500000000001 491.54999999999995 569.4900000000001 507.23999999999995 C 582.0400000000001 521.37 588.7100000000002 541.77 588.7100000000002 567.66 C 588.71 568.05 588.71 597.87 588.71 597.87 z M 471.01 530.78 C 463.55 539.8 458.84 552.36 457.67 569.23 L 556.15 569.23 C 556.15 568.44 556.15 568.0500000000001 556.15 567.66 C 556.15 550.01 552.62 537.06 545.17 528.43 C 537.7099999999999 519.8 525.9399999999999 515.88 509.06999999999994 515.88 C 491.81 515.87 479.64 520.58 471.01 530.78 z" stroke-linecap="round" />
</g>
		<g transform="matrix(1 0 0 1 147.19 43.15)"  >
<path style="stroke: none; stroke-width: 1; stroke-dasharray: none; stroke-linecap: butt; stroke-dashoffset: 0; stroke-linejoin: miter; stroke-miterlimit: 4; fill: rgb(255,255,255); fill-rule: nonzero; opacity: 1;" vector-effect="non-scaling-stroke"  transform=" translate(-687.19, -583.16)" d="M 709.15 677.91 L 664.43 677.91 L 605.5799999999999 488.40999999999997 L 640.4999999999999 488.40999999999997 L 687.1899999999998 647.6999999999999 L 733.8799999999999 488.40999999999997 L 768.7999999999998 488.40999999999997 L 709.15 677.91 z" stroke-linecap="round" />
</g>
		<g transform="matrix(1 0 0 1 277.63 -1.77)"  >
<path style="stroke: none; stroke-width: 1; stroke-dasharray: none; stroke-linecap: butt; stroke-dashoffset: 0; stroke-linejoin: miter; stroke-miterlimit: 4; fill: rgb(255,255,255); fill-rule: nonzero; opacity: 1;" vector-effect="non-scaling-stroke"  transform=" translate(-817.63, -538.24)" d="M 801.35 398.17 L 833.9100000000001 398.17 L 833.9100000000001 437.01 L 801.3500000000001 437.01 L 801.3500000000001 398.17 z M 801.35 489.19 L 833.9100000000001 489.19 L 833.9100000000001 678.3 L 801.3500000000001 678.3 L 801.3500000000001 489.19 z" stroke-linecap="round" />
</g>
		<g transform="matrix(1 0 0 1 417.05 42.95)"  >
<path style="stroke: none; stroke-width: 1; stroke-dasharray: none; stroke-linecap: butt; stroke-dashoffset: 0; stroke-linejoin: miter; stroke-miterlimit: 4; fill: rgb(255,255,255); fill-rule: nonzero; opacity: 1;" vector-effect="non-scaling-stroke"  transform=" translate(-957.05, -582.96)" d="M 1031.65 677.91 L 999.4800000000001 677.91 L 999.4800000000001 667.7099999999999 L 992.8100000000002 670.0699999999999 C 975.9400000000002 677.92 957.1100000000001 681.8399999999999 935.9200000000002 681.8399999999999 C 905.3100000000002 681.8399999999999 884.9200000000002 662.6199999999999 882.5600000000002 632.0199999999999 C 880.2000000000002 602.5899999999999 897.0800000000002 568.0699999999998 925.7200000000001 564.1399999999999 C 930.0400000000002 563.3599999999999 934.3500000000001 563.3599999999999 939.0600000000002 563.3599999999999 C 956.3200000000002 563.3599999999999 975.1500000000002 566.4999999999999 992.8100000000002 570.4199999999998 L 999.4800000000001 571.9899999999999 L 999.4800000000001 556.6899999999999 C 999.8800000000001 544.14 999.4800000000001 535.4999999999999 996.7300000000001 529.2299999999999 C 993.9800000000001 522.9499999999999 989.2800000000001 519.42 980.6400000000001 517.8499999999999 C 978.2900000000001 517.4599999999999 975.9300000000001 517.06 973.19 517.06 C 948.87 517.06 915.5200000000001 533.15 908.84 536.29 L 888.83 511.17999999999995 C 896.6800000000001 506.46999999999997 935.52 484.10999999999996 978.6700000000001 484.10999999999996 C 983.7700000000001 484.10999999999996 996.33 484.9 1007.71 490.38999999999993 C 1021.83 497.44999999999993 1029.68 508.8299999999999 1031.25 525.31 C 1032.05 530.78 1031.65 677.91 1031.65 677.91 z M 999.48 600.23 L 995.5600000000001 599.44 C 985.36 597.09 969.6600000000001 594.73 951.6200000000001 594.73 C 943.3800000000001 594.73 935.9300000000001 595.12 928.4700000000001 596.3000000000001 C 924.5500000000002 597.09 920.6200000000001 601.0100000000001 917.4900000000001 607.2900000000001 C 913.9600000000002 614.35 912.0000000000001 622.2 912.7800000000001 630.0400000000001 C 913.57 642.59 921.4100000000001 649.2700000000001 935.9300000000001 649.2700000000001 C 965.7500000000001 649.2700000000001 999.48 649.2700000000001 999.48 624.95 L 999.48 600.23 z M 978.69 484.09" stroke-linecap="round" />
</g>
</g>
</g>
</svg>