<?xml version="1.0" encoding="utf-8"?>
<!-- Generator: Adobe Illustrator 28.3.0, SVG Export Plug-In . SVG Version: 6.00 Build 0)  -->
<svg version="1.1" id="Layer_1" xmlns="http://www.w3.org/2000/svg" xmlns:xlink="http://www.w3.org/1999/xlink" x="0px" y="0px"
	 viewBox="0 0 1080 1080" style="enable-background:new 0 0 1080 1080;" xml:space="preserve">
<style type="text/css">
	.st0{fill:#FFFFFF;}
</style>
<g>
	<path class="st0" d="M197.55,677.91h-32.17v-10.2l-6.67,2.36c-16.87,7.85-35.7,11.77-56.89,11.77c-30.61,0-51-19.22-53.36-49.82
		c-2.36-29.43,14.52-63.95,43.16-67.88c4.32-0.78,8.63-0.78,13.34-0.78c17.26,0,36.09,3.14,53.75,7.06l6.67,1.57v-15.3
		c0.4-12.55,0-21.19-2.75-27.46c-2.75-6.28-7.45-9.81-16.09-11.38c-2.35-0.39-4.71-0.79-7.45-0.79c-24.32,0-57.67,16.09-64.35,19.23
		l-20.01-25.11c7.85-4.71,46.69-27.07,89.84-27.07c5.1,0,17.66,0.79,29.04,6.28c14.12,7.06,21.97,18.44,23.54,34.92
		C197.95,530.78,197.55,677.91,197.55,677.91z M165.38,600.23l-3.92-0.79c-10.2-2.35-25.9-4.71-43.94-4.71
		c-8.24,0-15.69,0.39-23.15,1.57c-3.92,0.79-7.85,4.71-10.98,10.99c-3.53,7.06-5.49,14.91-4.71,22.75
		c0.79,12.55,8.63,19.23,23.15,19.23c29.82,0,63.55,0,63.55-24.32V600.23z M144.59,484.09"/>
	<path class="st0" d="M318,579.04l-34.52,43.16v56.1H251.3V398.17h32.17v171.45l63.16-80.43h41.2l-49.04,62.77l70.23,126.33h-37.66
		L318,579.04z"/>
	<path class="st0" d="M588.71,597.87H457.67c1.57,17.65,6.28,29.82,13.73,37.66c8.24,8.63,21.19,12.16,41.98,12.16
		c18.05,0,43.55-5.49,55.71-10.98l13.34,29.43c-15.69,7.06-45.9,14.12-69.05,14.12c-29.82,0-50.61-7.06-65.52-22.36
		c-8.24-8.24-13.73-19.22-17.66-32.17c-3.53-12.16-5.49-26.68-5.49-43.94c0-30.21,7.46-54.93,21.19-71.8
		c7.45-9.03,16.87-15.3,27.86-20.01c10.2-4.32,22.36-6.67,35.31-6.67c26.68,0,47.08,8.24,60.42,23.93
		c12.55,14.13,19.22,34.53,19.22,60.42C588.71,568.05,588.71,597.87,588.71,597.87z M471.01,530.78
		c-7.46,9.02-12.17,21.58-13.34,38.45h98.48c0-0.79,0-1.18,0-1.57c0-17.65-3.53-30.6-10.98-39.23c-7.46-8.63-19.23-12.55-36.1-12.55
		C491.81,515.87,479.64,520.58,471.01,530.78z"/>
	<path class="st0" d="M709.15,677.91h-44.72l-58.85-189.5h34.92l46.69,159.29l46.69-159.29h34.92L709.15,677.91z"/>
	<path class="st0" d="M801.35,398.17h32.56v38.84h-32.56V398.17z M801.35,489.19h32.56V678.3h-32.56V489.19z"/>
	<path class="st0" d="M1031.65,677.91h-32.17v-10.2l-6.67,2.36c-16.87,7.85-35.7,11.77-56.89,11.77c-30.61,0-51-19.22-53.36-49.82
		c-2.36-29.43,14.52-63.95,43.16-67.88c4.32-0.78,8.63-0.78,13.34-0.78c17.26,0,36.09,3.14,53.75,7.06l6.67,1.57v-15.3
		c0.4-12.55,0-21.19-2.75-27.46c-2.75-6.28-7.45-9.81-16.09-11.38c-2.35-0.39-4.71-0.79-7.45-0.79c-24.32,0-57.67,16.09-64.35,19.23
		l-20.01-25.11c7.85-4.71,46.69-27.07,89.84-27.07c5.1,0,17.66,0.79,29.04,6.28c14.12,7.06,21.97,18.44,23.54,34.92
		C1032.05,530.78,1031.65,677.91,1031.65,677.91z M999.48,600.23l-3.92-0.79c-10.2-2.35-25.9-4.71-43.94-4.71
		c-8.24,0-15.69,0.39-23.15,1.57c-3.92,0.79-7.85,4.71-10.98,10.99c-3.53,7.06-5.49,14.91-4.71,22.75
		c0.79,12.55,8.63,19.23,23.15,19.23c29.82,0,63.55,0,63.55-24.32V600.23z M978.69,484.09"/>
</g>
</svg>
